<svg width="154" height="154" viewBox="0 0 154 154" fill="none" xmlns="http://www.w3.org/2000/svg">
<path d="M77.0737 12.9164C64.4553 12.9164 52.1204 16.6582 41.6286 23.6685C31.1368 30.6789 22.9595 40.643 18.1307 52.3008C13.3018 63.9587 12.0384 76.7866 14.5001 89.1625C16.9618 101.538 23.0381 112.906 31.9606 121.829C40.8832 130.751 52.2511 136.828 64.627 139.289C77.0029 141.751 89.8308 140.488 101.489 135.659C113.146 130.83 123.111 122.653 130.121 112.161C137.131 101.669 140.873 89.3342 140.873 76.7158C140.873 68.3376 139.223 60.0413 136.017 52.3008C132.81 44.5603 128.111 37.5271 122.187 31.6028C116.262 25.6785 109.229 20.979 101.489 17.7728C93.7482 14.5666 85.4519 12.9164 77.0737 12.9164ZM83.4536 102.236C83.4536 103.928 82.7814 105.55 81.585 106.747C80.3885 107.943 78.7657 108.616 77.0737 108.616C75.3816 108.616 73.7588 107.943 72.5624 106.747C71.3659 105.55 70.6937 103.928 70.6937 102.236V70.3359C70.6937 68.6438 71.3659 67.0211 72.5624 65.8246C73.7588 64.6281 75.3816 63.9559 77.0737 63.9559C78.7657 63.9559 80.3885 64.6281 81.585 65.8246C82.7814 67.0211 83.4536 68.6438 83.4536 70.3359V102.236ZM77.0737 57.576C75.8118 57.576 74.5783 57.2018 73.5292 56.5008C72.48 55.7997 71.6622 54.8033 71.1794 53.6376C70.6965 52.4718 70.5701 51.189 70.8163 49.9514C71.0625 48.7138 71.6701 47.577 72.5624 46.6848C73.4546 45.7925 74.5914 45.1849 75.829 44.9387C77.0666 44.6925 78.3494 44.8189 79.5152 45.3018C80.681 45.7846 81.6774 46.6024 82.3784 47.6515C83.0794 48.7007 83.4536 49.9342 83.4536 51.1961C83.4536 52.8881 82.7814 54.5109 81.585 55.7074C80.3885 56.9038 78.7657 57.576 77.0737 57.576Z" fill="white"/>
</svg>
