<svg width="253" height="262" viewBox="0 0 253 262" fill="none" xmlns="http://www.w3.org/2000/svg">
<path d="M235.259 67.145C226.132 58.0396 213.941 51.6827 199.79 48.6404C198.464 48.3549 197.222 47.7633 196.165 46.9128C195.107 46.0624 194.263 44.9766 193.7 43.7421C188.496 32.3766 180.618 22.4402 170.738 14.7823C158.095 5.11093 142.72 0.000384972 126.267 0.000384972C107.519 -0.0591286 89.4052 6.78348 75.3792 19.2234C62.2082 30.9576 53.1137 47.1654 49.021 65.9368C48.6796 67.5257 47.9018 68.9879 46.775 70.159C45.6481 71.3301 44.2169 72.1636 42.6423 72.5658C29.036 75.9946 23.207 79.3907 15.8596 85.9326C5.44254 95.2067 0 107.839 0 122.349C0 138.976 6.11197 152.631 17.6719 161.84C27.8005 169.9 41.6354 174.162 57.6909 174.162H185.046C203.116 174.162 219.938 167.925 232.396 156.593C245.371 144.81 252.534 128.472 252.534 110.593C252.534 93.4542 246.547 78.4328 235.259 67.145Z" fill="white"/>
<path d="M47.8944 235.118C46.3184 235.117 44.7722 234.689 43.4207 233.878C42.0691 233.067 40.9629 231.905 40.2199 230.515C39.477 229.125 39.1251 227.56 39.2019 225.986C39.2786 224.412 39.7811 222.888 40.6558 221.577L58.0719 195.453C58.7066 194.502 59.5224 193.685 60.4728 193.049C61.4232 192.413 62.4896 191.97 63.6111 191.746C64.7325 191.522 65.8871 191.521 67.0089 191.744C68.1306 191.966 69.1976 192.407 70.1489 193.042C71.1002 193.677 71.9172 194.492 72.5532 195.443C73.1892 196.393 73.6318 197.46 73.8557 198.581C74.0796 199.702 74.0804 200.857 73.858 201.979C73.6357 203.101 73.1946 204.168 72.56 205.119L55.1438 231.243C54.348 232.436 53.2698 233.414 52.0051 234.09C50.7404 234.766 49.3284 235.119 47.8944 235.118Z" fill="white"/>
<path d="M74.0186 261.242C72.443 261.24 70.8976 260.811 69.5468 260C68.196 259.189 67.0906 258.027 66.3483 256.637C65.606 255.247 65.2546 253.682 65.3316 252.109C65.4086 250.535 65.911 249.012 66.7854 247.701L101.618 195.453C102.252 194.502 103.068 193.685 104.019 193.049C104.969 192.413 106.035 191.97 107.157 191.746C108.278 191.522 109.433 191.521 110.555 191.744C111.676 191.966 112.743 192.407 113.695 193.042C114.646 193.677 115.463 194.492 116.099 195.443C116.735 196.393 117.178 197.46 117.401 198.581C117.625 199.702 117.626 200.857 117.404 201.979C117.181 203.101 116.74 204.168 116.106 205.119L81.2735 257.367C80.4771 258.561 79.3981 259.539 78.1324 260.215C76.8667 260.891 75.4535 261.244 74.0186 261.242Z" fill="white"/>
<path d="M134.975 235.118C133.399 235.117 131.853 234.689 130.501 233.878C129.15 233.067 128.044 231.905 127.301 230.515C126.558 229.126 126.206 227.56 126.282 225.986C126.359 224.412 126.862 222.888 127.736 221.577L145.153 195.453C146.434 193.532 148.427 192.198 150.692 191.746C152.957 191.294 155.308 191.76 157.23 193.042C159.151 194.324 160.484 196.316 160.936 198.581C161.388 200.846 160.922 203.198 159.641 205.119L142.224 231.243C141.429 232.436 140.35 233.414 139.086 234.09C137.821 234.766 136.409 235.119 134.975 235.118Z" fill="white"/>
<path d="M161.099 261.242C159.523 261.241 157.977 260.813 156.625 260.002C155.274 259.192 154.168 258.029 153.425 256.64C152.682 255.25 152.33 253.684 152.407 252.11C152.483 250.536 152.986 249.012 153.861 247.701L188.693 195.453C189.975 193.532 191.967 192.198 194.232 191.746C196.497 191.294 198.849 191.76 200.77 193.042C202.691 194.324 204.024 196.316 204.477 198.581C204.929 200.846 204.463 203.198 203.181 205.119L168.349 257.367C167.553 258.56 166.475 259.538 165.21 260.214C163.945 260.89 162.533 261.243 161.099 261.242Z" fill="white"/>
</svg>
